<?xml version="1.0" encoding="UTF-8"?>
<svg id="Layer_1" xmlns="http://www.w3.org/2000/svg" xmlns:xlink="http://www.w3.org/1999/xlink" xmlns:mydata="http://www.w3.org/2000/svg" version="1.1" viewBox="0 0 550 470">
  <!-- Generator: Adobe Illustrator 29.3.1, SVG Export Plug-In . SVG Version: 2.1.0 Build 151)  -->
  <defs>
    <style>
      .st0 {
        fill: none;
      }

      .st1 {
        stroke: #000;
        stroke-miterlimit: 10;
      }

      .st1, .st2 {
        fill: #fff;
      }

      .st3 {
        fill: #3d3935;
      }
    </style>
  </defs>
  <g>
    <path class="st3" d="M151.2,272.6v-90.8h-14.1v104h58v-13.2h-43.9,0Z"/>
    <path class="st3" d="M309.8,249.9c17.9-2.8,28.4-17.1,28.4-34s-16.9-34.1-40.3-34.1h-30v66.6c0,17.2-7.9,27.4-23.6,27.4s-24-10.3-24-27.4v-66.6h-14.1v66.6c0,24.9,14.3,39.7,38.1,39.7s37.7-14.7,37.7-39.7v-53.6h12.7c19.5,0,29.4,6.4,29.4,21.2s-11.4,24.6-31.9,24.4l-4.4,5.9,38.7,39.4h18.9l-35.7-36v.2h0Z"/>
    <path class="st3" d="M412.9,195.1v-13.2h-56.9v104h56.9v-13.2h-42.8v-33.2h39v-13h-39v-31.3h42.8Z"/>
  </g>
  <g>
    <path class="st2" d="M657.2,783v-160.4h-24.9v183.8h102.5v-23.4h-77.6Z"/>
    <path class="st2" d="M937.4,742.9c31.6-5,50.1-30.2,50.1-60s-29.9-60.2-71.3-60.2h-53v117.7c0,30.5-14,48.4-41.7,48.4s-42.4-18.1-42.4-48.4v-117.7h-24.9v117.7c0,44,25.3,70.1,67.3,70.1s66.7-26,66.7-70.1v-94.6h22.4c34.4,0,52,11.3,52,37.4s-20.1,43.4-56.3,43.1l-7.7,10.5,68.4,69.7h33.5l-63-63.5h0Z"/>
    <path class="st2" d="M1119.6,646v-23.4h-100.5v183.8h100.5v-23.4h-75.6v-58.7h68.9v-23h-68.9v-55.4h75.6Z"/>
  </g>
  <g>
    <rect class="st0" x="-1160.6" y="246.7" width="560" height="242.7"/>
    <g>
      <path class="st3" d="M-1022.3,411v-103.9h-16.1v119.1h66.4v-15.2h-50.3Z"/>
      <path class="st3" d="M-840.8,385.1c20.5-3.2,32.5-19.6,32.5-38.9s-19.4-39-46.2-39h-34.3v76.2c0,19.8-9.1,31.4-27,31.4s-27.5-11.7-27.5-31.4v-76.2h-16.1v76.2c0,28.5,16.4,45.4,43.6,45.4s43.2-16.8,43.2-45.4v-61.3h14.5c22.3,0,33.7,7.3,33.7,24.2s-13,28.1-36.5,27.9l-5,6.8,44.3,45.1h21.7l-40.8-41.1h-.1Z"/>
      <path class="st3" d="M-722.7,322.3v-15.2h-65.1v119.1h65.1v-15.2h-49v-38h44.6v-14.9h-44.6v-35.9h49Z"/>
    </g>
  </g>
  <g>
    <rect class="st0" x="-1160.6" y="563.7" width="560" height="242.7"/>
    <g>
      <path class="st2" d="M-1022.3,728.1v-103.9h-16.1v119.1h66.4v-15.2h-50.3Z"/>
      <path class="st2" d="M-840.8,702.1c20.5-3.2,32.5-19.6,32.5-38.9s-19.4-39-46.2-39h-34.3v76.2c0,19.8-9.1,31.4-27,31.4s-27.5-11.7-27.5-31.4v-76.2h-16.1v76.2c0,28.5,16.4,45.4,43.6,45.4s43.2-16.8,43.2-45.4v-61.3h14.5c22.3,0,33.7,7.3,33.7,24.2s-13,28.1-36.5,27.9l-5,6.8,44.3,45.1h21.7l-40.8-41.1h-.1Z"/>
      <path class="st2" d="M-722.7,639.4v-15.2h-65.1v119.1h65.1v-15.2h-49v-38h44.6v-14.9h-44.6v-35.9h49Z"/>
    </g>
  </g>
  <g>
    <rect class="st1" x="-940" y="-632.3" width="514.7" height="514.7"/>
    <g>
      <path class="st3" d="M-836.2-328.3v-112.6h-17.5v129h71.9v-16.4h-54.4,0Z"/>
      <path class="st3" d="M-639.5-356.4c22.2-3.5,35.2-21.2,35.2-42.2s-21-42.3-50-42.3h-37.2v82.6c0,21.3-9.8,34-29.3,34s-29.8-12.8-29.8-34v-82.6h-17.5v82.6c0,30.9,17.7,49.2,47.2,49.2s46.7-18.2,46.7-49.2v-66.5h15.7c24.2,0,36.5,7.9,36.5,26.3s-14.1,30.5-39.6,30.3l-5.5,7.3,48,48.9h23.4l-44.3-44.6v.2h.1Z"/>
      <path class="st3" d="M-511.7-424.4v-16.4h-70.6v129h70.6v-16.4h-53.1v-41.2h48.4v-16.1h-48.4v-38.8h53.1Z"/>
    </g>
  </g>
</svg>